# xmcd CD database file
#
# Track frame offsets:
#	183
#	30465
#	45628
#	79413
#	87788
#	107820
#	123098
#	157605
#	184563
#
# Disc length: 2815 seconds
#
# Revision: 1
# Processed by: cddbd v1.5.1PL0 Copyright (c) Steve Scherf et al.
# Submitted via: CDex 1.51
#
DISCID=5c0afd09
DTITLE=The Trio - The Trio Disc 1
DYEAR=1970
DGENRE=Jazz
TTITLE0=Oh, Dear
TTITLE1=Dousing Rod
TTITLE2=Silvercloud
TTITLE3=Incantation
TTITLE4=Caractacus
TTITLE5=Let's Stand
TTITLE6=Foyer Hall
TTITLE7=Porte Des Lilas
TTITLE8=Veritably
EXTD=YEAR: 1970
EXTT0=
EXTT1=
EXTT2=
EXTT3=
EXTT4=
EXTT5=
EXTT6=
EXTT7=
EXTT8=
PLAYORDER=
